<?xml version="1.0" encoding="utf-8"?>
<!-- Generator: Adobe Illustrator 27.0.0, SVG Export Plug-In . SVG Version: 6.00 Build 0)  -->
<svg version="1.1" id="Layer_1" xmlns="http://www.w3.org/2000/svg" xmlns:xlink="http://www.w3.org/1999/xlink" x="0px" y="0px"
	 viewBox="0 0 1080 1080" style="enable-background:new 0 0 1080 1080;" xml:space="preserve">
<style type="text/css">
	.st0{fill:#FFD250;}
	.st1{fill:#F3782D;}
	.st2{fill:#EE7134;}
	.st3{fill:#EF7233;}
	.st4{fill:#EF7332;}
	.st5{fill:#F07431;}
	.st6{fill:#F17531;}
	.st7{fill:#F17530;}
	.st8{fill:#F2762F;}
	.st9{fill:#F2772E;}
	.st10{fill:url(#SVGID_00000022532959467016473690000008882287472886463647_);}
	.st11{opacity:0.65;clip-path:url(#SVGID_00000180329353117718167920000007094164727936276892_);fill:#F3782D;}
</style>
<g>
	
		<image style="overflow:visible;opacity:0.6;" width="3967" height="4044" xlink:href="1CCAA9D17ABE01E9.png"  transform="matrix(0.24 0 0 0.24 72.9381 82.2981)">
	</image>
	<g>
		<g>
			<g>
				<defs>
					<path id="SVGID_1_" d="M836.7,442.9c-43.5-0.2-79.2-7.3-84.4-6.9c0.1-1,2-8.1,2-9.1c0-17.2-13.6-32.7-30.8-32.7
						c-1.2,0-2.3,0.1-3.5,0.2c0-0.6,0-1.1,0-1.7c0-28.3-22.6-53.8-53.8-53.8s-48,12.2-56.2,36.5c-0.5,1.3-2.8,12.3-2.7,13.7
						c0.1-6.2-8.2-8-8.6-8c-5,0-10.7,1.8-12.8,11.8c-0.7-21.1-11.7-30.3-32.9-30.3c-5.3,0-10.3,1.1-14.9,3l58.3-98.8l223.7-19
						L943.7,90.7l-479.4,34.6l-92.9,159.5l49.6-4.5L292.5,498.9l85.1-7.2L127.8,906.2l667.3-55.9l-431.2-60L550,477
						C551.2,477,727.4,453.3,836.7,442.9z"/>
				</defs>
				<clipPath id="SVGID_00000021107209008197947980000008292108514205334201_">
					<use xlink:href="#SVGID_1_"  style="overflow:visible;"/>
				</clipPath>
			</g>
		</g>
		<g>
			<g>
				<path class="st0" d="M138,939.6c-6.2,0-12.1-2.4-16.5-6.8l-10.1-10.1c-7.6-7.6-9-19.3-3.5-28.5l219.3-363.9l-22.6,1.9
					c-0.7,0.1-1.3,0.1-2,0.1c-6.2,0-12.1-2.4-16.5-6.8L276,515.4c-7.5-7.5-9-19.1-3.6-28.3l100.3-170.6c-2.8-1.2-5.4-2.9-7.6-5.1
					L355,301.3c-7.5-7.5-9-19.1-3.7-28.2l92.9-159.5c3.9-6.7,10.8-11,18.5-11.5L942,67.4c0.6,0,1.1-0.1,1.7-0.1
					c6.2,0,12.1,2.4,16.5,6.8l10.1,10.1c8.4,8.4,9.1,21.6,1.8,30.9L848.4,272.1c-4,5.1-9.9,8.2-16.3,8.8l-211.7,18l-30.2,51.3
					c1.4,1.1,2.7,2.3,3.9,3.4c13.7-25.3,37.9-38.1,72.1-38.1c23.1,0,44.6,10.1,59.2,27.7c10.9,9.1,19.2,21.1,23.8,34.5
					c6.3,3.6,11.8,8.4,16.4,14.3c8.1,6.3,14.4,14.7,18.1,24.2c14.4,1.7,32.8,3.3,53.1,3.4c6.1,0,12,2.5,16.3,6.8l10.1,10.1
					c6.4,6.4,8.5,15.9,5.4,24.4c-3.1,8.5-10.7,14.5-19.7,15.3c-43.4,4.1-126.3,13.1-274.6,32.6L416.8,774.1l381.6,53.1
					c5,0.7,9.7,3,13.3,6.6l10.1,10.1c6.4,6.4,8.5,16,5.4,24.5s-10.9,14.5-19.9,15.2l-667.3,55.9C139.2,939.6,138.6,939.6,138,939.6z
					"/>
			</g>
			<g>
				<path class="st1" d="M154,973.9c-6.2,0-12.1-2.4-16.5-6.8l-10.1-10.1c-7.6-7.6-9-19.3-3.5-28.5l219.3-363.9l-22.6,1.9
					c-0.7,0.1-1.3,0.1-2,0.1c-6.2,0-12.1-2.4-16.5-6.8l-10.1-10.1c-7.5-7.5-9-19.1-3.6-28.3l100.3-170.6c-2.8-1.2-5.4-2.9-7.6-5.1
					l-10.1-10.1c-7.5-7.5-9-19.1-3.7-28.2l92.9-159.5c3.9-6.7,10.8-11,18.5-11.5l479.4-34.6c0.6,0,1.1-0.1,1.7-0.1
					c6.2,0,12.1,2.4,16.5,6.8l10.1,10.1c8.4,8.4,9.1,21.6,1.8,30.9L864.5,306.3c-4,5.1-9.9,8.2-16.3,8.8l-211.7,18l-30.2,51.3
					c1.4,1.1,2.7,2.3,3.9,3.4c13.7-25.3,37.9-38.1,72.1-38.1c23.1,0,44.6,10.1,59.2,27.7c10.9,9.1,19.2,21.1,23.8,34.5
					c6.3,3.6,11.8,8.4,16.4,14.3c8.1,6.3,14.4,14.7,18.1,24.2c14.4,1.7,32.8,3.3,53.1,3.4c6.1,0,12,2.5,16.3,6.8l10.1,10.1
					c6.4,6.4,8.5,15.9,5.4,24.4c-3.1,8.5-10.7,14.5-19.7,15.3c-43.4,4.1-126.3,13.1-274.6,32.6L432.8,808.3l381.6,53.1
					c5,0.7,9.7,3,13.3,6.6l10.1,10.1c6.4,6.4,8.5,16,5.4,24.5c-3.1,8.5-10.9,14.5-19.9,15.2L156,973.8
					C155.3,973.8,154.7,973.9,154,973.9z"/>
			</g>
			<g>
				<path class="st2" d="M138,940.2c-6.2,0-12.1-2.4-16.5-6.8l-10.1-10.1c-7.6-7.6-9-19.3-3.5-28.5l219.3-363.9l-22.6,1.9
					c-0.7,0.1-1.3,0.1-2,0.1c-6.2,0-12.1-2.4-16.5-6.8L276,516c-7.5-7.5-9-19.1-3.6-28.3l100.3-170.6c-2.8-1.2-5.4-2.9-7.6-5.1
					L355,301.9c-7.5-7.5-9-19.1-3.7-28.2l92.9-159.5c3.9-6.7,10.8-11,18.5-11.5L942,68c0.6,0,1.1-0.1,1.7-0.1
					c6.2,0,12.1,2.4,16.5,6.8l10.1,10.1c8.4,8.4,9.1,21.6,1.8,30.9L848.4,272.7c-4,5.1-9.9,8.2-16.3,8.8l-211.7,18l-30.2,51.3
					c1.4,1.1,2.7,2.3,3.9,3.4c13.7-25.3,37.9-38.1,72.1-38.1c23.1,0,44.6,10.1,59.2,27.7c10.9,9.1,19.2,21.1,23.8,34.5
					c6.3,3.6,11.8,8.4,16.4,14.3c8.1,6.3,14.4,14.7,18.1,24.2c14.4,1.7,32.8,3.3,53.1,3.4c6.1,0,12,2.5,16.3,6.8l10.1,10.1
					c6.4,6.4,8.5,15.9,5.4,24.4C865.6,470,858,476,849,476.8c-43.4,4.1-126.3,13.1-274.6,32.6L416.8,774.7l381.6,53.1
					c5,0.7,9.7,3,13.3,6.6l10.1,10.1c6.4,6.4,8.5,16,5.4,24.5c-3.1,8.5-10.9,14.5-19.9,15.2l-667.3,55.9
					C139.2,940.2,138.6,940.2,138,940.2z"/>
				<path class="st3" d="M140,944.5c-6.2,0-12.1-2.4-16.5-6.8l-10.1-10.1c-7.6-7.6-9-19.3-3.5-28.5l219.3-363.9l-22.6,1.9
					c-0.7,0.1-1.3,0.1-2,0.1c-6.2,0-12.1-2.4-16.5-6.8L278,520.2c-7.5-7.5-9-19.1-3.6-28.3l100.3-170.6c-2.8-1.2-5.4-2.9-7.6-5.1
					L357,306.1c-7.5-7.5-9-19.1-3.7-28.2l92.9-159.5c3.9-6.7,10.8-11,18.5-11.5L944,72.3c0.6,0,1.1-0.1,1.7-0.1
					c6.2,0,12.1,2.4,16.5,6.8l10.1,10.1c8.4,8.4,9.1,21.6,1.8,30.9L850.4,276.9c-4,5.1-9.9,8.2-16.3,8.8l-211.7,18L592.1,355
					c1.4,1.1,2.7,2.3,3.9,3.4c13.7-25.3,37.9-38.1,72.1-38.1c23.1,0,44.6,10.1,59.2,27.7c10.9,9.1,19.2,21.1,23.8,34.5
					c6.3,3.6,11.8,8.4,16.4,14.3c8.1,6.3,14.4,14.7,18.1,24.2c14.4,1.7,32.8,3.3,53.1,3.4c6.1,0,12,2.5,16.4,6.8l10.1,10.1
					c6.4,6.4,8.5,15.9,5.4,24.4c-3.1,8.5-10.7,14.5-19.7,15.3c-43.4,4.1-126.3,13.1-274.6,32.6L418.8,779l381.6,53.1
					c5,0.7,9.7,3,13.3,6.6l10.1,10.1c6.4,6.4,8.5,16,5.4,24.5c-3.1,8.5-10.9,14.5-19.9,15.2l-667.3,55.9
					C141.3,944.5,140.6,944.5,140,944.5z"/>
				<path class="st4" d="M142,948.8c-6.2,0-12.1-2.4-16.5-6.8l-10.1-10.1c-7.6-7.6-9-19.3-3.5-28.5l219.3-363.9l-22.6,1.9
					c-0.7,0.1-1.3,0.1-2,0.1c-6.2,0-12.1-2.4-16.5-6.8L280,524.5c-7.5-7.5-9-19.1-3.6-28.3l100.3-170.6c-2.8-1.2-5.4-2.9-7.6-5.1
					L359,310.4c-7.5-7.5-9-19.1-3.7-28.2l92.9-159.5c3.9-6.7,10.8-11,18.5-11.5L946,76.6c0.6,0,1.1-0.1,1.7-0.1
					c6.2,0,12.1,2.4,16.5,6.8l10.1,10.1c8.4,8.4,9.1,21.6,1.8,30.9L852.4,281.2c-4,5.1-9.9,8.2-16.3,8.8l-211.7,18l-30.2,51.3
					c1.4,1.1,2.7,2.3,3.9,3.4c13.7-25.3,37.9-38.1,72.1-38.1c23.1,0,44.6,10.1,59.2,27.7c10.9,9.1,19.2,21.1,23.8,34.5
					c6.3,3.6,11.8,8.4,16.4,14.3c8.1,6.3,14.4,14.7,18.1,24.2c14.4,1.7,32.8,3.3,53.1,3.4c6.1,0,12,2.5,16.4,6.8l10.1,10.1
					c6.4,6.4,8.5,15.9,5.4,24.4c-3.1,8.5-10.7,14.5-19.7,15.3c-43.4,4.1-126.3,13.1-274.6,32.6L420.8,783.3l381.6,53.1
					c5,0.7,9.7,3,13.3,6.6l10.1,10.1c6.4,6.4,8.5,16,5.4,24.5c-3.1,8.5-10.9,14.5-19.9,15.2l-667.3,55.9
					C143.3,948.8,142.6,948.8,142,948.8z"/>
				<path class="st5" d="M144,953.1c-6.2,0-12.1-2.4-16.5-6.8l-10.1-10.1c-7.6-7.6-9-19.3-3.5-28.5l219.3-363.9l-22.6,1.9
					c-0.7,0.1-1.3,0.1-2,0.1c-6.2,0-12.1-2.4-16.5-6.8L282,528.8c-7.5-7.5-9-19.1-3.6-28.3l100.3-170.6c-2.8-1.2-5.4-2.9-7.6-5.1
					L361,314.7c-7.5-7.5-9-19.1-3.7-28.2L450.2,127c3.9-6.7,10.8-11,18.5-11.5l479.4-34.6c0.6,0,1.1-0.1,1.7-0.1
					c6.2,0,12.1,2.4,16.5,6.8l10.1,10.1c8.4,8.4,9.1,21.6,1.8,30.9L854.4,285.5c-4,5.1-9.9,8.2-16.3,8.8l-211.7,18l-30.2,51.3
					c1.4,1.1,2.7,2.3,3.9,3.4c13.7-25.3,37.9-38.1,72.1-38.1c23.1,0,44.6,10.1,59.2,27.7c10.9,9.1,19.2,21.1,23.8,34.5
					c6.3,3.6,11.8,8.4,16.4,14.3c8.1,6.3,14.4,14.7,18.1,24.2c14.4,1.7,32.8,3.3,53.1,3.4c6.1,0,12,2.5,16.4,6.8l10.1,10.1
					c6.4,6.4,8.5,15.9,5.4,24.4c-3.1,8.5-10.7,14.5-19.7,15.3c-43.4,4.1-126.3,13.1-274.6,32.6L422.8,787.5l381.6,53.1
					c5,0.7,9.7,3,13.3,6.6l10.1,10.1c6.4,6.4,8.5,16,5.4,24.5c-3.1,8.5-10.9,14.5-19.9,15.2L145.9,953
					C145.3,953,144.6,953.1,144,953.1z"/>
				<path class="st6" d="M146,957.3c-6.2,0-12.1-2.4-16.5-6.8l-10.1-10.1c-7.6-7.6-9-19.3-3.5-28.5L335.2,548l-22.6,1.9
					c-0.7,0.1-1.3,0.1-2,0.1c-6.2,0-12.1-2.4-16.5-6.8L284,533.1c-7.5-7.5-9-19.1-3.6-28.3l100.3-170.6c-2.8-1.2-5.4-2.9-7.6-5.1
					L363,319c-7.5-7.5-9-19.1-3.7-28.2l92.9-159.5c3.9-6.7,10.8-11,18.5-11.5l479.4-34.6c0.6,0,1.1-0.1,1.7-0.1
					c6.2,0,12.1,2.4,16.5,6.8l10.1,10.1c8.4,8.4,9.1,21.6,1.8,30.9L856.4,289.8c-4,5.1-9.9,8.2-16.3,8.8l-211.7,18l-30.2,51.3
					c1.4,1.1,2.7,2.3,3.9,3.4c13.7-25.3,37.9-38.1,72.1-38.1c23.1,0,44.6,10.1,59.2,27.7c10.9,9.1,19.2,21.1,23.8,34.5
					c6.3,3.6,11.8,8.4,16.4,14.3c8.1,6.3,14.4,14.7,18.1,24.2c14.4,1.7,32.8,3.3,53.1,3.4c6.1,0,12,2.5,16.3,6.8l10.1,10.1
					c6.4,6.4,8.5,15.9,5.4,24.4c-3.1,8.5-10.7,14.5-19.7,15.3c-43.4,4.1-126.3,13.1-274.6,32.6L424.8,791.8l381.6,53.1
					c5,0.7,9.7,3,13.3,6.6l10.1,10.1c6.4,6.4,8.5,16,5.4,24.5c-3.1,8.5-10.9,14.5-19.9,15.2l-667.3,55.9
					C147.3,957.3,146.6,957.3,146,957.3z"/>
				<path class="st7" d="M148,961.6c-6.2,0-12.1-2.4-16.5-6.8l-10.1-10.1c-7.6-7.6-9-19.3-3.5-28.5l219.3-363.9l-22.6,1.9
					c-0.7,0.1-1.3,0.1-2,0.1c-6.2,0-12.1-2.4-16.5-6.8l-10.1-10.1c-7.5-7.5-9-19.1-3.6-28.3l100.3-170.6c-2.8-1.2-5.4-2.9-7.6-5.1
					L365,323.2c-7.5-7.5-9-19.1-3.7-28.2l92.9-159.5c3.9-6.7,10.8-11,18.5-11.5l479.4-34.6c0.6,0,1.1-0.1,1.7-0.1
					c6.2,0,12.1,2.4,16.5,6.8l10.1,10.1c8.4,8.4,9.1,21.6,1.8,30.9L858.4,294c-4,5.1-9.9,8.2-16.3,8.8l-211.7,18l-30.2,51.3
					c1.4,1.1,2.7,2.3,3.9,3.4c13.7-25.3,37.9-38.1,72.1-38.1c23.1,0,44.6,10.1,59.2,27.7c10.9,9.1,19.2,21.1,23.8,34.5
					c6.3,3.6,11.8,8.4,16.4,14.3c8.1,6.3,14.4,14.7,18.1,24.2c14.4,1.7,32.8,3.3,53.1,3.4c6.1,0,12,2.5,16.3,6.8l10.1,10.1
					c6.4,6.4,8.5,15.9,5.4,24.4c-3.1,8.5-10.7,14.5-19.7,15.3c-43.4,4.1-126.3,13.1-274.6,32.6L426.8,796.1l381.6,53.1
					c5,0.7,9.7,3,13.3,6.6l10.1,10.1c6.4,6.4,8.5,16,5.4,24.5c-3.1,8.5-10.9,14.5-19.9,15.2l-667.3,55.9
					C149.3,961.6,148.6,961.6,148,961.6z"/>
				<path class="st8" d="M150,965.9c-6.2,0-12.1-2.4-16.5-6.8L123.4,949c-7.6-7.6-9-19.3-3.5-28.5l219.3-363.9l-22.6,1.9
					c-0.7,0.1-1.3,0.1-2,0.1c-6.2,0-12.1-2.4-16.5-6.8l-10.1-10.1c-7.5-7.5-9-19.1-3.6-28.3l100.3-170.6c-2.8-1.2-5.4-2.9-7.6-5.1
					L367,327.5c-7.5-7.5-9-19.1-3.7-28.2l92.9-159.5c3.9-6.7,10.8-11,18.5-11.5l479.4-34.6c0.6,0,1.1-0.1,1.7-0.1
					c6.2,0,12.1,2.4,16.5,6.8l10.1,10.1c8.4,8.4,9.1,21.6,1.8,30.9L860.4,298.3c-4,5.1-9.9,8.2-16.3,8.8l-211.7,18l-30.2,51.3
					c1.4,1.1,2.7,2.3,3.9,3.4c13.7-25.3,37.9-38.1,72.1-38.1c23.1,0,44.6,10.1,59.2,27.7c10.9,9.1,19.2,21.1,23.8,34.5
					c6.3,3.6,11.8,8.4,16.4,14.3c8.1,6.3,14.4,14.7,18.1,24.2c14.4,1.7,32.8,3.3,53.1,3.4c6.1,0,12,2.5,16.3,6.8l10.1,10.1
					c6.4,6.4,8.5,15.9,5.4,24.4c-3.1,8.5-10.7,14.5-19.7,15.3c-43.4,4.1-126.3,13.1-274.6,32.6L428.8,800.4l381.6,53.1
					c5,0.7,9.7,3,13.3,6.6l10.1,10.1c6.4,6.4,8.5,16,5.4,24.5c-3.1,8.5-10.9,14.5-19.9,15.2l-667.3,55.9
					C151.3,965.9,150.6,965.9,150,965.9z"/>
				<path class="st9" d="M152,970.2c-6.2,0-12.1-2.4-16.5-6.8l-10.1-10.1c-7.6-7.6-9-19.3-3.5-28.5l219.3-363.9l-22.6,1.9
					c-0.7,0.1-1.3,0.1-2,0.1c-6.2,0-12.1-2.4-16.5-6.8l-10.1-10.1c-7.5-7.5-9-19.1-3.6-28.3L386.8,347c-2.8-1.2-5.4-2.9-7.6-5.1
					l-10.1-10.1c-7.5-7.5-9-19.1-3.7-28.2l92.9-159.5c3.9-6.7,10.8-11,18.5-11.5L956.1,98c0.6,0,1.1-0.1,1.7-0.1
					c6.2,0,12.1,2.4,16.5,6.8l10.1,10.1c8.4,8.4,9.1,21.6,1.8,30.9L862.5,302.6c-4,5.1-9.9,8.2-16.3,8.8l-211.7,18l-30.2,51.3
					c1.4,1.1,2.7,2.3,3.9,3.4c13.7-25.3,37.9-38.1,72.1-38.1c23.1,0,44.6,10.1,59.2,27.7c10.9,9.1,19.2,21.1,23.8,34.5
					c6.3,3.6,11.8,8.4,16.4,14.3c8.1,6.3,14.4,14.7,18.1,24.2c14.4,1.7,32.8,3.3,53.1,3.4c6.1,0,12,2.5,16.4,6.8l10.1,10.1
					c6.4,6.4,8.5,15.9,5.4,24.4c-3.1,8.5-10.7,14.5-19.7,15.3c-43.4,4.1-126.3,13.1-274.6,32.6L430.8,804.6l381.6,53.1
					c5,0.7,9.7,3,13.3,6.6l10.1,10.1c6.4,6.4,8.5,16,5.4,24.5c-3.1,8.5-10.9,14.5-19.9,15.2L154,970.1
					C153.3,970.1,152.7,970.2,152,970.2z"/>
				<path class="st1" d="M154,974.4c-6.2,0-12.1-2.4-16.5-6.8l-10.1-10.1c-7.6-7.6-9-19.3-3.5-28.5l219.3-363.9l-22.6,1.9
					c-0.7,0.1-1.3,0.1-2,0.1c-6.2,0-12.1-2.4-16.5-6.8l-10.1-10.1c-7.5-7.5-9-19.1-3.6-28.3l100.3-170.6c-2.8-1.2-5.4-2.9-7.6-5.1
					l-10.1-10.1c-7.5-7.5-9-19.1-3.7-28.2l92.9-159.5c3.9-6.7,10.8-11,18.5-11.5l479.4-34.6c0.6,0,1.1-0.1,1.7-0.1
					c6.2,0,12.1,2.4,16.5,6.8l10.1,10.1c8.4,8.4,9.1,21.6,1.8,30.9L864.5,306.9c-4,5.1-9.9,8.2-16.3,8.8l-211.7,18l-30.2,51.3
					c1.4,1.1,2.7,2.3,3.9,3.4c13.7-25.3,37.9-38.1,72.1-38.1c23.1,0,44.6,10.1,59.2,27.7c10.9,9.1,19.2,21.1,23.8,34.5
					c6.3,3.6,11.8,8.4,16.4,14.3c8.1,6.3,14.4,14.7,18.1,24.2c14.4,1.7,32.8,3.3,53.1,3.4c6.1,0,12,2.5,16.4,6.8l10.1,10.1
					c6.4,6.4,8.5,15.9,5.4,24.4c-3.1,8.5-10.7,14.5-19.7,15.3c-43.4,4.1-126.3,13.1-274.6,32.6L432.8,808.9l381.6,53.1
					c5,0.7,9.7,3,13.3,6.6l10.1,10.1c6.4,6.4,8.5,16,5.4,24.5c-3.1,8.5-10.9,14.5-19.9,15.2L156,974.4
					C155.3,974.4,154.7,974.4,154,974.4z"/>
			</g>
			<g>
				<path class="st0" d="M138,939.6c-6.2,0-12.1-2.4-16.5-6.8l-10.1-10.1c-7.6-7.6-9-19.3-3.5-28.5l219.3-363.9l-22.6,1.9
					c-0.7,0.1-1.3,0.1-2,0.1c-6.2,0-12.1-2.4-16.5-6.8L276,515.4c-7.5-7.5-9-19.1-3.6-28.3l100.3-170.6c-2.8-1.2-5.4-2.9-7.6-5.1
					L355,301.3c-7.5-7.5-9-19.1-3.7-28.2l92.9-159.5c3.9-6.7,10.8-11,18.5-11.5L942,67.4c0.6,0,1.1-0.1,1.7-0.1
					c6.2,0,12.1,2.4,16.5,6.8l10.1,10.1c8.4,8.4,9.1,21.6,1.8,30.9L848.4,272.1c-4,5.1-9.9,8.2-16.3,8.8l-211.7,18l-30.2,51.3
					c1.4,1.1,2.7,2.3,3.9,3.4c13.7-25.3,37.9-38.1,72.1-38.1c23.1,0,44.6,10.1,59.2,27.7c10.9,9.1,19.2,21.1,23.8,34.5
					c6.3,3.6,11.8,8.4,16.4,14.3c8.1,6.3,14.4,14.7,18.1,24.2c14.4,1.7,32.8,3.3,53.1,3.4c6.1,0,12,2.5,16.3,6.8l10.1,10.1
					c6.4,6.4,8.5,15.9,5.4,24.4c-3.1,8.5-10.7,14.5-19.7,15.3c-43.4,4.1-126.3,13.1-274.6,32.6L416.8,774.1l381.6,53.1
					c5,0.7,9.7,3,13.3,6.6l10.1,10.1c6.4,6.4,8.5,16,5.4,24.5s-10.9,14.5-19.9,15.2l-667.3,55.9C139.2,939.6,138.6,939.6,138,939.6z
					"/>
			</g>
			<path class="st1" d="M846.8,453.1l-10.1-10.1l-73.5-0.2c0.6-2.4,1.2-5.1,1.2-5.8c0-17.2-13.6-32.7-30.8-32.7
				c-1.2,0-2.3,0.1-3.5,0.2c0-0.6,0-1.1,0-1.7c0-28.3-22.6-53.8-53.8-53.8s-48,12.2-56.2,36.5c-0.5,1.3-2.8,12.3-2.7,13.7
				c0.1-6.2-8.2-8-8.6-8c-5,0-10.7,1.8-12.8,11.8c-0.7-21.1-11.7-30.3-32.9-30.3c-5.3,0-10.3,1.1-14.9,3l58.3-98.8l223.7-19
				l123.7-156.8l-10.1-10.1l-19.4,11.6l0.6,0.6l-450.5,32.5L392,277.1l-7.1,0.9l-13.4,6.8l10.1,10.1l49.6-4.5L314,489.6l-21.5,9.3
				l10.1,10.1l85.1-7.2L150.2,896l-22.3,10.2l10.1,10.1l667.3-55.9l-10.1-10.1l-75-1.7L374,800.4l186-313.2
				C561.3,487.1,737.5,463.4,846.8,453.1z"/>
			
				<linearGradient id="SVGID_00000182486996199097909330000007438410387956987827_" gradientUnits="userSpaceOnUse" x1="448.3583" y1="924.9506" x2="676.8477" y2="112.742">
				<stop  offset="0" style="stop-color:#F3782D"/>
				<stop  offset="1" style="stop-color:#CE2027"/>
			</linearGradient>
			<path style="fill:url(#SVGID_00000182486996199097909330000007438410387956987827_);" d="M836.7,442.9
				c-43.5-0.2-79.2-7.3-84.4-6.9c0.1-1,2-8.1,2-9.1c0-17.2-13.6-32.7-30.8-32.7c-1.2,0-2.3,0.1-3.5,0.2c0-0.6,0-1.1,0-1.7
				c0-28.3-22.6-53.8-53.8-53.8s-48,12.2-56.2,36.5c-0.5,1.3-2.8,12.3-2.7,13.7c0.1-6.2-8.2-8-8.6-8c-5,0-10.7,1.8-12.8,11.8
				c-0.7-21.1-11.7-30.3-32.9-30.3c-5.3,0-10.3,1.1-14.9,3l58.3-98.8l223.7-19L943.7,90.7l-479.4,34.6l-92.9,159.5l49.6-4.5
				L292.5,498.9l85.1-7.2L127.8,906.2l667.3-55.9l-431.2-60L550,477C551.2,477,727.4,453.3,836.7,442.9z"/>
			<g>
				<defs>
					<path id="SVGID_00000140711291938178739910000013033273440229056159_" d="M836.7,442.9c-43.5-0.2-79.2-7.3-84.4-6.9
						c0.1-1,2-8.1,2-9.1c0-17.2-13.6-32.7-30.8-32.7c-1.2,0-2.3,0.1-3.5,0.2c0-0.6,0-1.1,0-1.7c0-28.3-22.6-53.8-53.8-53.8
						s-48,12.2-56.2,36.5c-0.5,1.3-2.8,12.3-2.7,13.7c0.1-6.2-8.2-8-8.6-8c-5,0-10.7,1.8-12.8,11.8c-0.7-21.1-11.7-30.3-32.9-30.3
						c-5.3,0-10.3,1.1-14.9,3l58.3-98.8l223.7-19L943.7,90.7l-479.4,34.6l-92.9,159.5l49.6-4.5L292.5,498.9l85.1-7.2L127.8,906.2
						l667.3-55.9l-431.2-60L550,477C551.2,477,727.4,453.3,836.7,442.9z"/>
				</defs>
				<clipPath id="SVGID_00000149342840360049035450000016432905029427785356_">
					<use xlink:href="#SVGID_00000140711291938178739910000013033273440229056159_"  style="overflow:visible;"/>
				</clipPath>
				<path style="opacity:0.65;clip-path:url(#SVGID_00000149342840360049035450000016432905029427785356_);fill:#F3782D;" d="
					M894.5,627.4c-30.1-6.1-60.4,6.4-82.2,30.6c-8.9-10.9-20.6-18.6-34.3-21.3c-25.2-5.1-50.7,7.8-68,31.2
					c-6.2-8.8-15.1-15.2-25.7-17.3c-14.9-3-29.9,3-40.8,14.7c-2.6-20.3-14-36.6-30.4-41c2.9-36.6-16.3-68.9-46.2-75
					c-23.3-4.7-46.9,7.9-61.5,30.2c-9.9-9-21.9-15.4-35.5-18.1c-46-9.3-92.1,26.9-103,80.9c-0.3,1.7-0.6,3.3-0.9,5
					c-4.1-2.7-8.7-4.6-13.7-5.6c-14.9-3-29.9,3-40.8,14.7c-2.6-20.3-14-36.6-30.4-41c2.9-36.6-16.3-68.9-46.2-75
					c-23.3-4.7-46.9,7.9-61.5,30.2c-9.9-9-21.9-15.4-35.5-18.1c-46-9.3-92.1,26.9-103,80.9c-6.6,32.9,1.4,64.9,19.1,86.9
					c-3.3,6.2-5.7,12.8-7.1,19.9c-8.1,40.2,18.2,80.1,60.1,94.8c-14.7,86.7,54.7,172.7,157,193.3c83.7,16.9,163.9-15,201.4-73.9
					c27.8,40.3,74.2,71.5,130.6,82.9c98.9,20,193.1-28.3,217.4-108.8c45.5,2.8,88.2-32.5,98.6-83.7c1.1-5.3,1.8-10.6,2.1-15.9
					c23.3-15.9,41.4-42.8,48.1-75.6C974.3,693.7,943.9,637.4,894.5,627.4z"/>
			</g>
		</g>
		<g>
			<g>
				<defs>
					<path id="SVGID_00000146486435952510178790000002678300232592428218_" d="M836.7,442.9c-43.5-0.2-79.2-7.3-84.4-6.9
						c0.1-1,2-8.1,2-9.1c0-17.2-13.6-32.7-30.8-32.7c-1.2,0-2.3,0.1-3.5,0.2c0-0.6,0-1.1,0-1.7c0-28.3-22.6-53.8-53.8-53.8
						s-48,12.2-56.2,36.5c-0.5,1.3-2.8,12.3-2.7,13.7c0.1-6.2-8.2-8-8.6-8c-5,0-10.7,1.8-12.8,11.8c-0.7-21.1-11.7-30.3-32.9-30.3
						c-5.3,0-10.3,1.1-14.9,3l58.3-98.8l223.7-19L943.7,90.7l-479.4,34.6l-92.9,159.5l49.6-4.5L292.5,498.9l85.1-7.2L127.8,906.2
						l667.3-55.9l-431.2-60L550,477C551.2,477,727.4,453.3,836.7,442.9z"/>
				</defs>
				<clipPath id="SVGID_00000173839626335670068200000013411619786553686407_">
					<use xlink:href="#SVGID_00000146486435952510178790000002678300232592428218_"  style="overflow:visible;"/>
				</clipPath>
			</g>
		</g>
	</g>
</g>
</svg>
